<?xml version="1.0" encoding="utf-8"?>
<!-- Generator: Adobe Illustrator 21.1.0, SVG Export Plug-In . SVG Version: 6.00 Build 0)  -->
<svg version="1.1" id="Calque_1" xmlns="http://www.w3.org/2000/svg" xmlns:xlink="http://www.w3.org/1999/xlink" x="0px" y="0px"
	 viewBox="0 0 112 40" style="enable-background:new 0 0 112 40;" xml:space="preserve">
<style type="text/css">
	.st0{clip-path:url(#SVGID_2_);}
	.st1{clip-path:url(#SVGID_4_);fill:url(#SVGID_5_);}
	.st2{clip-path:url(#SVGID_7_);fill:url(#SVGID_8_);}
	.st3{clip-path:url(#SVGID_10_);fill:url(#SVGID_11_);}
	.st4{clip-path:url(#SVGID_13_);fill:#F5F5F5;}
</style>
<g id="logo-icon-small_white">
	<g>
		<defs>
			<rect id="SVGID_1_" x="0.2" y="0.7" width="111.7" height="38.5"/>
		</defs>
		<clipPath id="SVGID_2_">
			<use xlink:href="#SVGID_1_"  style="overflow:visible;"/>
		</clipPath>
		<g class="st0">
			<defs>
				<path id="SVGID_3_" d="M28.1,14.6c-2.9,0.3-5.1,2.9-4.9,5.8c0,0.8-0.3,1.5-1,1.9l0,0c-0.3,0.2-0.7,0.3-1.1,0.3
					c-0.4,0-0.7-0.1-1.1-0.3c-0.9-0.5-1.9-0.8-2.9-0.8c-0.2,0-0.4,0-0.6,0c-2.9,0.3-5,2.9-4.8,5.8c0,0.8-0.3,1.5-1,1.9
					c-0.3,0.2-0.7,0.3-1.1,0.3c-0.4,0-0.7-0.1-1-0.3c-0.9-0.5-1.9-0.8-2.9-0.8c-0.2,0-0.4,0-0.6,0c-2.7,0.3-4.7,2.6-4.8,5.4
					c0,3,2.4,5.5,5.4,5.5c0.2,0,0.4,0,0.5,0c2.6-0.3,4.7-2.3,4.9-4.9c0-0.3,0-0.6,0-0.9c0-0.8,0.3-1.5,1-1.9l0,0
					c0.3-0.2,0.7-0.3,1.1-0.3c0.4,0,0.7,0.1,1.1,0.3c0.9,0.5,1.9,0.8,2.9,0.8c0.2,0,0.4,0,0.6,0c2.6-0.3,4.6-2.4,4.8-4.9
					c0-0.3,0-0.6,0-0.9c0-0.8,0.3-1.5,1-1.9c0.3-0.2,0.7-0.3,1.1-0.3c0.4,0,0.7,0.1,1,0.3c0.9,0.5,1.9,0.8,2.9,0.8
					c0.2,0,0.4,0,0.6,0C31.9,25,34,22.8,34,20c0-3-2.4-5.5-5.4-5.5C28.4,14.5,28.2,14.5,28.1,14.6"/>
			</defs>
			<clipPath id="SVGID_4_">
				<use xlink:href="#SVGID_3_"  style="overflow:visible;"/>
			</clipPath>
			
				<linearGradient id="SVGID_5_" gradientUnits="userSpaceOnUse" x1="-2.075772e-02" y1="40.1167" x2="0.2075" y2="40.1167" gradientTransform="matrix(69.1727 -69.1727 -69.1727 -69.1727 2779.4456 2814.4827)">
				<stop  offset="0" style="stop-color:#F4C503"/>
				<stop  offset="1" style="stop-color:#FFE800"/>
			</linearGradient>
			<polygon class="st1" points="-12.2,26.9 17.1,-2.4 46.4,26.9 17.1,56.1 			"/>
		</g>
		<g class="st0">
			<defs>
				<path id="SVGID_6_" d="M16.6,7.7c-2.9,0.3-5.1,2.9-4.9,5.8c0,0.8-0.3,1.5-1,1.9c-0.3,0.2-0.7,0.3-1.1,0.3c-0.4,0-0.7-0.1-1-0.3
					c-0.9-0.5-1.9-0.8-2.9-0.8c-0.2,0-0.4,0-0.6,0c-2.7,0.4-4.7,2.6-4.7,5.3c0,3,2.4,5.5,5.4,5.5l0,0c0.2,0,0.4,0,0.5,0
					c2.6-0.3,4.7-2.3,4.9-4.9c0-0.3,0-0.6,0-0.9c0-0.8,0.3-1.5,1-1.9c0.3-0.2,0.7-0.3,1.1-0.3c0.4,0,0.7,0.1,1,0.3
					c0.9,0.5,1.9,0.8,2.9,0.8c0.2,0,0.4,0,0.6,0c2.7-0.3,4.7-2.6,4.8-5.4c0-3-2.4-5.5-5.4-5.5C16.9,7.6,16.8,7.6,16.6,7.7"/>
			</defs>
			<clipPath id="SVGID_7_">
				<use xlink:href="#SVGID_6_"  style="overflow:visible;"/>
			</clipPath>
			
				<linearGradient id="SVGID_8_" gradientUnits="userSpaceOnUse" x1="-2.075773e-02" y1="39.7241" x2="0.2075" y2="39.7241" gradientTransform="matrix(69.1727 -69.1727 -69.1727 -69.1727 2744.2534 2779.2905)">
				<stop  offset="0" style="stop-color:#F4C503"/>
				<stop  offset="1" style="stop-color:#FFE800"/>
			</linearGradient>
			<polygon class="st2" points="-8.7,16.5 11.4,-3.5 31.4,16.5 11.4,36.6 			"/>
		</g>
		<g class="st0">
			<defs>
				<circle id="SVGID_9_" cx="5.6" cy="6.2" r="5.4"/>
			</defs>
			<clipPath id="SVGID_10_">
				<use xlink:href="#SVGID_9_"  style="overflow:visible;"/>
			</clipPath>
			
				<linearGradient id="SVGID_11_" gradientUnits="userSpaceOnUse" x1="-2.075773e-02" y1="39.3304" x2="0.2075" y2="39.3304" gradientTransform="matrix(69.1727 -69.1727 -69.1727 -69.1727 2708.9688 2744.0056)">
				<stop  offset="0" style="stop-color:#F4C503"/>
				<stop  offset="1" style="stop-color:#FFE800"/>
			</linearGradient>
			<polygon class="st3" points="-5.3,6.2 5.6,-4.7 16.5,6.2 5.6,17.1 			"/>
		</g>
		<g class="st0">
			<defs>
				<rect id="SVGID_12_" x="0.2" y="0.7" width="111.7" height="38.5"/>
			</defs>
			<clipPath id="SVGID_13_">
				<use xlink:href="#SVGID_12_"  style="overflow:visible;"/>
			</clipPath>
			<path class="st4" d="M52.3,8.1c-1.1-0.7-2.6-0.4-3.4,0.7c-0.5,0.8-0.5,1.8,0,2.6c0.2,0.3,0.4,0.6,0.7,0.7
				c1.1,0.7,2.6,0.4,3.4-0.7C53.8,10.3,53.4,8.8,52.3,8.1"/>
			<path class="st4" d="M57,24.7v1.5c0,0.6-0.5,1-1,1h-9.8c-0.3,0-0.6-0.3-0.6-0.6v-2.4c0-0.3,0.3-0.6,0.6-0.6h3.3v-5.4h-3.4
				c-0.3,0-0.6-0.3-0.6-0.6v-2.4c0-0.3,0.3-0.6,0.6-0.6H52c0.7,0,1.2,0.6,1.2,1.3v7.5H56C56.6,23.7,57,24.2,57,24.7"/>
			<path class="st4" d="M97.4,21.9h-7.3c0.2,1.4,1.1,2.4,2.7,2.4c1,0,1.9-0.3,2.6-1c0.3-0.3,0.7-0.3,1,0l1.2,1.2
				c0.2,0.2,0.2,0.5,0,0.7c-1.2,1.3-2.8,2-4.7,2c-1.9,0-3.4-0.6-4.5-1.7c-1.1-1.1-1.7-2.6-1.7-4.4c0-1.8,0.5-3.3,1.6-4.5
				c1.1-1.2,2.5-1.8,4.2-1.8c1.9,0,3.3,0.6,4.2,1.8c1,1.2,1.5,2.6,1.5,4.3l0,0.3C98.1,21.6,97.8,21.9,97.4,21.9 M90.2,19.9h4.4
				c0-1.4-0.7-2.3-2.1-2.3C91,17.5,90.3,18.5,90.2,19.9"/>
			<path class="st4" d="M111.7,24.3c0.2,0.2,0.2,0.5,0,0.7c-1.2,1.4-2.8,2.1-4.9,2.1c-1.9,0-3.4-0.6-4.5-1.7
				c-1.2-1.1-1.7-2.6-1.7-4.5c0-1.9,0.6-3.4,1.7-4.5c1.2-1.1,2.7-1.7,4.5-1.7c2,0,3.3,0.7,4.6,2c0.2,0.2,0.2,0.6,0,0.8l-1.4,1.3
				c-0.3,0.3-0.8,0.3-1.1,0c-0.6-0.6-1.3-0.9-2-0.9c-1.7,0-2.9,1.2-2.9,3.1c0,1.9,1.1,3.1,2.9,3.1c0.9,0,1.6-0.4,2.3-1.1
				c0.3-0.3,0.8-0.3,1.1,0c0,0,0,0,0,0L111.7,24.3z"/>
			<path class="st4" d="M85,26.9c-0.1,0.2-0.3,0.3-0.5,0.3h-2.3c-0.3,0-0.5-0.1-0.6-0.4l-1.8-3.1l-1.9,3.2c-0.1,0.2-0.3,0.3-0.5,0.3
				H75c-0.2,0-0.4-0.1-0.6-0.3c-0.1-0.2-0.1-0.5,0-0.7l3.3-5.4l-3.1-5c-0.1-0.2-0.1-0.4,0-0.7c0.1-0.2,0.3-0.3,0.6-0.3h2.3
				c0.2,0,0.4,0.1,0.5,0.3l1.6,2.6l1.6-2.6c0.1-0.2,0.4-0.4,0.6-0.4h2.3c0.2,0,0.4,0.1,0.5,0.3c0.1,0.2,0.1,0.4,0,0.6l-3.1,5
				l3.4,5.4C85.1,26.5,85.1,26.7,85,26.9"/>
			<path class="st4" d="M63.6,11.2v3.6h5.6c0.5,0,1,0.4,1,1v1.4c0,0.5-0.4,1-1,1h-5.6v5.5h7.3c0.5,0,1,0.4,1,1v1.5c0,0.5-0.4,1-1,1
				H60.4c-0.5,0-1-0.4-1-1V8.8c0-0.5,0.4-1,1-1h10.5c0.5,0,1,0.4,1,1v1.5c0,0.5-0.4,1-1,1H63.6z"/>
		</g>
	</g>
</g>
</svg>
